<svg width="131" height="37" viewBox="0 0 131 37" fill="none" xmlns="http://www.w3.org/2000/svg">
<path fill-rule="evenodd" clip-rule="evenodd" d="M65.0996 30.0598C59.0025 34.52 50.1646 36.8944 42.5535 36.8944C31.8846 36.8944 22.2804 32.9858 15.0118 26.4763C14.4408 25.9649 14.9492 25.2672 15.6381 25.6617C23.4814 30.1877 33.1814 32.9127 43.1982 32.9127C49.9546 32.9127 57.3853 31.521 64.2191 28.6462C65.2506 28.2115 66.1127 29.3183 65.1069 30.0598H65.0996Z" fill="#F8981D"/>
<path fill-rule="evenodd" clip-rule="evenodd" d="M67.6346 27.1884C66.8536 26.1985 62.4807 26.7172 60.5135 26.951C59.9167 27.0204 59.8245 26.5053 60.3624 26.1327C63.8512 23.7036 69.5724 24.4049 70.2355 25.2158C70.906 26.0377 70.0587 31.7217 66.791 34.4358C66.2863 34.8522 65.8111 34.6294 66.0321 34.0778C66.7689 32.255 68.4156 28.1747 67.6346 27.1848V27.1884Z" fill="#F8981D"/>
<path fill-rule="evenodd" clip-rule="evenodd" d="M60.6535 8.9642V6.60078C60.6535 6.24279 60.9297 6.0017 61.2576 6.0017H71.9339C72.2765 6.0017 72.5491 6.24645 72.5491 6.59713V8.62083C72.5491 8.96055 72.2581 9.40255 71.746 10.1076L66.2163 17.9357C68.2683 17.8882 70.4418 18.1914 72.3059 19.2325C72.7259 19.4663 72.8401 19.8133 72.8733 20.153V22.6735C72.8733 23.0205 72.4902 23.4224 72.0886 23.2141C68.8025 21.5082 64.4406 21.3219 60.8082 23.2361C60.4361 23.4333 60.0493 23.0351 60.0493 22.6881V20.2918C60.0493 19.9083 60.0566 19.2544 60.4471 18.6699L66.8536 9.55597H61.276C60.9334 9.55597 60.6608 9.31488 60.6608 8.96055L60.6535 8.9642ZM21.7135 23.7146H18.4642C18.1548 23.6963 17.9079 23.4625 17.8822 23.1703V6.64096C17.8822 6.30855 18.1658 6.04554 18.5121 6.04554H21.5367C21.8535 6.06015 22.1077 6.29759 22.1261 6.60078V8.75964H22.1888C22.9771 6.67384 24.4618 5.69851 26.4622 5.69851C28.4626 5.69851 29.7668 6.67384 30.6767 8.75964C31.4651 6.67384 33.2518 5.69851 35.1638 5.69851C36.5269 5.69851 38.0152 6.25375 38.9215 7.50669C39.953 8.89845 39.7394 10.9148 39.7394 12.6902V23.1192C39.7394 23.4479 39.4557 23.7146 39.1094 23.7146H35.8638C35.5396 23.6927 35.2817 23.437 35.2817 23.1228V14.3595C35.2817 13.6655 35.3407 11.923 35.1896 11.2655C34.9465 10.1514 34.2207 9.84089 33.2813 9.84089C32.4929 9.84089 31.6751 10.3633 31.3398 11.1961C31.0046 12.0326 31.0377 13.4207 31.0377 14.3595V23.1192C31.0377 23.4479 30.7578 23.7146 30.4115 23.7146H27.1658C26.8417 23.6927 26.5838 23.437 26.5838 23.1228V14.3595C26.5838 12.5148 26.8822 9.80437 24.5797 9.80437C22.2772 9.80437 22.3361 12.4491 22.3361 14.3595V23.1192C22.3361 23.4479 22.0561 23.7146 21.7098 23.7146H21.7135ZM81.7407 5.69851C86.5594 5.69851 89.1676 9.80437 89.1676 15.0207C89.1676 20.237 86.2868 24.0653 81.7407 24.0653C77.1946 24.0653 74.4353 19.9594 74.4353 14.849C74.4353 9.73861 77.0436 5.70217 81.7407 5.70217V5.69851ZM81.7702 9.07379C79.3755 9.07379 79.2245 12.3066 79.2245 14.3266C79.2245 16.3467 79.195 20.6571 81.7407 20.6571C84.2863 20.6571 84.3784 17.1796 84.3784 15.0572C84.3784 13.6655 84.3195 11.9961 83.8921 10.6738C83.5274 9.52675 82.8017 9.07379 81.7702 9.07379ZM95.4194 23.7146H92.1848C91.8606 23.6927 91.6028 23.437 91.6028 23.1228V6.58617C91.6249 6.28298 91.8938 6.04554 92.2217 6.04554H95.2352C95.5189 6.06015 95.751 6.2501 95.8136 6.50946V9.03726H95.8762C96.7862 6.77612 98.0571 5.69851 100.301 5.69851C101.756 5.69851 103.182 6.22088 104.092 7.6455C104.939 8.96785 104.939 11.1925 104.939 12.7924V23.1922C104.902 23.4844 104.637 23.7146 104.316 23.7146H101.06C100.758 23.6963 100.518 23.4771 100.481 23.1922V14.2171C100.481 12.4089 100.695 9.76418 98.4513 9.76418C97.663 9.76418 96.9335 10.2865 96.5725 11.0865C96.1194 12.0947 96.0567 13.1029 96.0567 14.2171V23.1155C96.0494 23.4443 95.7694 23.7109 95.4231 23.7109L95.4194 23.7146ZM106.969 22.4032C106.969 21.5703 107.683 20.8982 108.568 20.8982C109.452 20.8982 110.166 21.574 110.166 22.4032C110.166 23.2324 109.452 23.9082 108.568 23.9082C107.683 23.9082 106.969 23.2324 106.969 22.4032ZM52.1434 15.8207C52.1434 17.0773 52.1729 18.122 51.5355 19.2361C51.0198 20.1421 50.1982 20.7009 49.2883 20.7009C48.0431 20.7009 47.3137 19.7585 47.3137 18.3667C47.3137 15.6234 49.7967 15.1266 52.1434 15.1266V15.8243V15.8207ZM55.4185 23.6707C55.2048 23.8607 54.8954 23.8753 54.6522 23.7475C53.5728 22.8598 53.3812 22.447 52.7918 21.6032C51.0087 23.4041 49.7451 23.9447 47.4352 23.9447C44.7017 23.9447 42.5724 22.2717 42.5724 18.9256C42.5724 16.3102 44.0017 14.5349 46.0353 13.6618C47.7963 12.8947 50.2572 12.7559 52.1434 12.5477V12.1313C52.1434 11.3642 52.206 10.4582 51.7492 9.79706C51.355 9.20529 50.5961 8.96055 49.9256 8.96055C48.6878 8.96055 47.5863 9.58884 47.3137 10.8929C47.2584 11.1815 47.0447 11.4701 46.75 11.4847L43.6039 11.1486C43.3386 11.0902 43.0439 10.8783 43.1176 10.4765C43.8396 6.68845 47.2916 5.54509 50.3788 5.54509C51.9592 5.54509 54.0259 5.96152 55.2711 7.14871C56.8516 8.61352 56.7005 10.5642 56.7005 12.6902V17.7056C56.7005 19.2142 57.3342 19.8754 57.9273 20.69C58.1336 20.9822 58.1815 21.3329 57.9162 21.5448C57.2531 22.0964 56.0742 23.1119 55.4258 23.6854L55.4185 23.6781V23.6707ZM9.56736 15.8207C9.56736 17.0773 9.59683 18.122 8.9595 19.2361C8.44374 20.1421 7.62221 20.7009 6.71226 20.7009C5.46706 20.7009 4.73763 19.7585 4.73763 18.3667C4.73763 15.6234 7.22065 15.1266 9.56736 15.1266V15.8243V15.8207ZM12.8424 23.6707C12.6288 23.8607 12.3156 23.8753 12.0762 23.7475C10.9968 22.8598 10.8052 22.447 10.2157 21.6032C8.43269 23.4041 7.16907 23.9447 4.86288 23.9447C2.12935 23.9447 0 22.2717 0 18.9256C0 16.3102 1.42939 14.5349 3.46296 13.6618C5.22392 12.8947 7.68483 12.7559 9.57104 12.5477V12.1313C9.57104 11.3642 9.62999 10.4582 9.17685 9.79706C8.78267 9.20529 8.02376 8.96055 7.35327 8.96055C6.11545 8.96055 5.01393 9.58884 4.74131 10.8929C4.68605 11.1815 4.47238 11.4701 4.17766 11.4847L1.03152 11.1486C0.766273 11.0902 0.471552 10.8783 0.545232 10.4765C1.2673 6.68845 4.71552 5.54509 7.8064 5.54509C9.38684 5.54509 11.4536 5.96152 12.6988 7.14871C14.2792 8.61352 14.1282 10.5642 14.1282 12.6902V17.7056C14.1282 19.2142 14.7618 19.8754 15.3549 20.69C15.5612 20.9822 15.6091 21.3329 15.3439 21.5448C14.6808 22.0964 13.5019 23.1119 12.8535 23.6854L12.8461 23.6781L12.8424 23.6707ZM118.511 6.07111H119.808C120.084 6.07111 120.364 6.30855 120.364 6.57521V9.0263C121.27 7.11218 122.736 5.72408 124.991 5.72408C126.748 5.72408 128.067 6.34873 129.032 7.7003C130.056 9.1578 130.237 11.1742 130.237 12.9787V23.1995C130.237 23.4698 129.957 23.7073 129.681 23.7073H128.17C127.894 23.7073 127.614 23.4698 127.614 23.1995V12.9787C127.614 11.9705 127.551 10.6518 127.102 9.74957C126.667 8.81808 125.683 8.08385 124.751 8.08751C123.783 8.08751 122.526 8.79251 121.749 9.89203C120.817 11.2107 120.574 12.6682 120.574 14.3376V23.2178C120.574 23.4698 120.297 23.7109 120.017 23.7109H118.507C118.227 23.7109 117.947 23.4589 117.951 23.2032V6.57886C117.951 6.30855 118.227 6.07111 118.507 6.07111H118.511ZM111.868 1.52326C111.868 0.683091 112.594 0 113.486 0C114.377 0 115.103 0.683091 115.103 1.52326C115.103 2.36342 114.377 3.04651 113.486 3.04651C112.594 3.04651 111.868 2.36342 111.868 1.52326ZM114.252 23.7109H112.723C112.447 23.7109 112.167 23.4698 112.167 23.2068L112.174 6.65557C112.174 6.38891 112.454 6.14782 112.727 6.14782H114.248C114.525 6.14782 114.805 6.38891 114.805 6.65557V23.2105C114.805 23.4771 114.528 23.7109 114.252 23.7146V23.7109Z" fill="#231F20"/>
</svg>
