<svg width="50" height="50" viewBox="0 0 50 50" fill="none" xmlns="http://www.w3.org/2000/svg">
<g clip-path="url(#clip0_2_47)">
<path d="M39.4286 -3.8147e-05H10.5714C4.73299 -3.8147e-05 0 4.73295 0 10.5714V39.4285C0 45.267 4.73299 50 10.5714 50H39.4286C45.267 50 50 45.267 50 39.4285V10.5714C50 4.73295 45.267 -3.8147e-05 39.4286 -3.8147e-05Z" fill="#FFE141"/>
<path d="M9.00674 22.0606C9.73001 22.0606 10.3758 22.2413 10.9441 22.6028C11.5175 22.9591 11.967 23.4651 12.2925 24.121C12.6076 24.751 12.7652 25.492 12.7652 26.344C12.7652 27.1703 12.6076 27.9087 12.2925 28.5594C11.9773 29.21 11.533 29.7187 10.9596 30.0853C10.381 30.4571 9.73001 30.643 9.00674 30.643C8.47979 30.643 7.98384 30.5346 7.51888 30.3177C7.05391 30.1008 6.65612 29.7961 6.32548 29.4037V30.4493H3.62872V19.3573H6.32548V23.2921C6.65612 22.8997 7.05391 22.5976 7.51888 22.3858C7.98384 22.169 8.47979 22.0606 9.00674 22.0606ZM8.20081 28.4044C8.58311 28.4044 8.92408 28.3167 9.22372 28.1411C9.52337 27.9656 9.75842 27.7203 9.92891 27.4053C10.0994 27.0954 10.1846 26.7417 10.1846 26.344C10.1846 25.9567 10.0994 25.6056 9.92891 25.2906C9.75842 24.9756 9.52337 24.7303 9.22372 24.5547C8.92408 24.3791 8.58311 24.2914 8.20081 24.2914C7.83918 24.2914 7.51629 24.3791 7.23215 24.5547C6.94801 24.7251 6.72587 24.9653 6.56571 25.2751C6.40555 25.5901 6.32548 25.9464 6.32548 26.344C6.32548 26.7417 6.40555 27.098 6.56571 27.413C6.72587 27.7228 6.94801 27.9656 7.23215 28.1411C7.51629 28.3167 7.83918 28.4044 8.20081 28.4044Z" fill="black"/>
<path d="M13.1342 30.4493V19.3573H15.831V30.4493H13.1342Z" fill="black"/>
<path d="M16.5954 30.4493V22.2465H19.2767V30.4493H16.5954Z" fill="black"/>
<path d="M25.1015 22.0604C25.675 22.0604 26.1915 22.1947 26.6514 22.4633C27.1111 22.7266 27.4728 23.0984 27.7363 23.5786C27.9894 24.064 28.116 24.614 28.116 25.2286V30.4491H25.5433V25.8327C25.5433 25.5331 25.4838 25.2673 25.365 25.0349C25.2514 24.7973 25.0887 24.614 24.8768 24.4849C24.6701 24.3559 24.4274 24.2913 24.1484 24.2913C23.8848 24.2913 23.6421 24.3559 23.42 24.4849C23.1978 24.6089 23.0247 24.7793 22.9007 24.9961C22.7715 25.2027 22.707 25.4454 22.707 25.7243L22.6915 30.4491H20.0103V22.2463H22.6915V23.1836C22.9447 22.8324 23.283 22.5587 23.7067 22.3626C24.1303 22.1611 24.5953 22.0604 25.1015 22.0604Z" fill="black"/>
<path d="M34.041 25.8328L37.0866 30.4493H34.041L32.2587 27.5447L31.4373 28.4974V30.4493H28.7406V19.3573H31.4373V25.4843L34.0256 22.2464H37.071L34.041 25.8328Z" fill="black"/>
<path d="M16.5941 19.3582H19.2841V21.4611H16.5941V19.3582Z" fill="black"/>
<path d="M37.5148 30.4246V22.2217H40.196V30.4246H37.5148Z" fill="#0C831F"/>
<path d="M45.8651 28.1088L46.3998 29.8362C46.157 30.0685 45.8497 30.2571 45.4777 30.4016C45.1108 30.5462 44.7518 30.6185 44.4005 30.6185C43.8942 30.6185 43.4421 30.5075 43.0444 30.2853C42.6465 30.0582 42.3365 29.7432 42.1144 29.3403C41.8922 28.9479 41.7812 28.4961 41.7812 27.9849V24.3676H40.7041V22.2219H41.7812V19.3582H44.354V22.2219H46.0511V24.3676H44.354V27.4892C44.354 27.7525 44.4237 27.9668 44.5632 28.132C44.7027 28.2973 44.881 28.3799 45.098 28.3799C45.253 28.3799 45.3975 28.3566 45.532 28.3102C45.6662 28.2638 45.7772 28.1966 45.8651 28.1088Z" fill="#0C831F"/>
<path d="M37.4938 19.3582H40.1838V21.4611H37.4938V19.3582Z" fill="#0C831F"/>
</g>
<defs>
<clipPath id="clip0_2_47">
<rect width="50" height="50" fill="white"/>
</clipPath>
</defs>
</svg>
