<svg width="110" height="29" viewBox="0 0 110 29" fill="none" xmlns="http://www.w3.org/2000/svg">
<g clip-path="url(#clip0_2_79)">
<path d="M109.979 5.02553C109.966 4.98454 109.954 4.94354 109.938 4.90255C100.226 4.90665 90.5186 4.90255 80.8111 4.90665C80.7865 4.93534 80.7701 4.96404 80.766 5.00094C80.766 12.5318 80.766 20.0585 80.7618 27.5894C80.8233 27.9911 81.0446 28.3559 81.3399 28.6306C81.3522 28.6347 81.3809 28.6387 81.3932 28.6429C81.5449 28.8027 81.7621 28.8807 81.9671 28.9545C82.1188 28.9463 82.2664 29.0118 82.418 28.9954H94.4704C94.5852 28.9913 94.704 29.0118 94.8147 28.9668C94.8189 28.9505 94.8229 28.9217 94.827 28.9053C94.8312 28.8848 94.8352 28.8397 94.8393 28.8152C95.0976 27.3722 95.3476 25.925 95.6224 24.482L95.647 24.2975C94.532 24.2933 93.4128 24.2975 92.2978 24.2933C92.0272 24.2852 91.7485 24.2933 91.4779 24.2605C91.0147 24.24 90.5473 24.2564 90.0841 24.2113C89.5102 24.2113 88.9403 24.158 88.3664 24.158C87.9155 24.1129 87.4604 24.1293 87.0054 24.1088C86.7103 24.072 86.4069 24.0884 86.1077 24.076C85.6199 24.0228 85.1238 24.0597 84.636 24.0064C84.1195 24.0105 83.6029 23.9654 83.0864 23.953C83.0905 23.9489 83.0946 23.9325 83.0946 23.9284C83.2668 23.9325 83.4349 23.9203 83.607 23.9162C83.9883 23.8669 84.3736 23.8998 84.7549 23.8464C85.1525 23.8464 85.5461 23.7932 85.9437 23.7932C86.2963 23.7439 86.6529 23.7727 87.0054 23.7235C87.4195 23.7235 87.8253 23.6702 88.2394 23.6661C88.5797 23.621 88.924 23.6456 89.2643 23.6005C89.6619 23.6046 90.0555 23.5431 90.4531 23.5472C90.8426 23.502 91.2401 23.5143 91.6296 23.4733C91.5928 23.3217 91.564 23.17 91.5313 23.0183C91.5026 22.924 91.3878 22.9445 91.314 22.9322C90.4244 22.805 89.539 22.678 88.6535 22.555C88.7109 22.5099 88.7888 22.5304 88.8543 22.5222C89.5431 22.4689 90.2277 22.4074 90.9164 22.3582C91.0721 22.3501 91.2238 22.3213 91.3796 22.3172C91.3099 22.1041 91.2689 21.8704 91.1746 21.6736C89.703 21.4482 88.2312 21.2473 86.7636 21.0054C87.1449 20.9439 87.5302 20.9152 87.9115 20.8742L87.9443 20.8619C89.1618 20.7347 90.3834 20.5912 91.601 20.4724C93.1464 20.4643 94.6879 20.4683 96.2334 20.4724C96.2825 20.4643 96.3686 20.4888 96.3768 20.4191C96.5039 19.755 96.6269 19.0909 96.7539 18.4267C96.9302 17.5044 97.2089 16.5943 97.6394 15.7539C98.3158 14.401 99.3858 13.2532 100.689 12.4907C101.907 11.7774 103.317 11.433 104.719 11.3674C105.174 11.3264 105.633 11.3387 106.084 11.3961C106.379 11.4658 106.683 11.5478 106.916 11.7487C107.109 11.9045 107.224 12.134 107.31 12.3636C107.499 12.9088 107.605 13.4746 107.695 14.0444C107.699 14.274 107.74 14.5323 107.617 14.7413C107.503 14.9463 107.273 15.0447 107.056 15.1062C106.265 15.3112 105.437 15.1185 104.645 15.3112C103.994 15.4506 103.387 15.8113 102.973 16.332C102.485 16.9386 102.227 17.6929 102.083 18.4473C101.973 19.1196 101.833 19.7919 101.722 20.4683C102.501 20.4725 103.284 20.4642 104.067 20.4725C104.379 20.4725 104.699 20.6447 104.826 20.9398C104.99 21.317 104.953 21.7434 104.9 22.141C104.834 22.5878 104.727 23.0305 104.526 23.4405C104.358 23.789 104.08 24.1088 103.698 24.2318C103.502 24.3096 103.288 24.2932 103.079 24.2932C102.391 24.2932 101.702 24.3014 101.013 24.2932C100.903 24.7975 100.829 25.314 100.73 25.8265C100.55 26.8226 100.374 27.8229 100.193 28.8232C100.189 28.8561 100.185 28.9257 100.185 28.9626C100.509 28.979 100.833 28.9626 101.157 28.9708C103.559 28.9708 105.965 28.9666 108.372 28.9708C108.63 28.979 108.892 28.9175 109.118 28.7904C109.253 28.7412 109.335 28.6223 109.454 28.5568C109.569 28.4912 109.602 28.356 109.7 28.2698C109.807 28.0812 109.917 27.8845 109.925 27.663C109.938 27.663 109.971 27.6589 109.987 27.6549C109.974 20.1118 109.987 12.5687 109.979 5.02553Z" fill="url(#paint0_linear_2_79)" stroke="#FCD109" stroke-width="0.094"/>
<path d="M84.5866 0.0651004C84.9351 -0.045587 85.2999 0.0282046 85.6567 0.00360741C92.3511 0.00770694 99.0455 0.00360741 105.74 0.00360741C106.137 -0.0127907 106.486 0.212684 106.855 0.32747C107.15 0.446357 107.457 0.540646 107.753 0.667731C107.814 0.692329 107.859 0.745623 107.904 0.790718C107.9 1.33186 107.904 1.87709 107.904 2.42233C107.908 2.56581 107.884 2.7134 107.933 2.85278C108.019 2.86508 108.064 2.93067 108.122 2.98397C108.392 3.10695 108.622 3.30783 108.868 3.47181C109.237 3.73418 109.63 3.96375 109.991 4.23432C110.007 4.34091 109.995 4.4516 109.962 4.54999C109.925 4.66477 109.95 4.78776 109.938 4.90255C100.226 4.90665 90.5185 4.90255 80.811 4.90665C80.7905 4.77136 80.8274 4.63608 80.77 4.50899C80.7618 4.4024 80.7249 4.26302 80.8274 4.18923C81.2373 3.90226 81.6718 3.64399 82.0735 3.34063C82.3237 3.18074 82.5654 3.01676 82.8073 2.85278C82.8565 2.77079 82.8401 2.6683 82.8401 2.57811C82.8401 1.98368 82.8401 1.38925 82.8442 0.794817C82.9836 0.614438 83.2255 0.59394 83.4181 0.50375C83.8077 0.356167 84.2013 0.212683 84.5866 0.0651004ZM84.6112 0.134792C84.0865 0.335669 83.5577 0.528348 83.0329 0.729225C82.9632 0.741523 82.9263 0.803016 82.8895 0.85631C82.8936 0.889106 82.8977 0.9465 82.8977 0.979296C82.8935 1.47124 82.8977 1.96318 82.8935 2.45513C82.8977 2.57811 82.8812 2.7011 82.9263 2.81179C82.873 2.86508 82.8157 2.91837 82.75 2.95937C82.1556 3.34473 81.5817 3.76288 80.9872 4.14413C80.8847 4.20563 80.77 4.28762 80.8028 4.4229C80.7823 4.49669 80.8192 4.55819 80.897 4.53769C82.1843 4.52949 83.4674 4.54589 84.7547 4.52539C86.6692 4.52539 88.5795 4.52949 90.4939 4.52539L90.5226 4.51309C90.6087 4.53359 90.6947 4.52539 90.7849 4.52539C94.2531 4.52539 97.7212 4.52949 101.193 4.52539C102.284 4.52949 103.378 4.52539 104.473 4.52539C106.277 4.52539 108.085 4.54179 109.888 4.53359C109.942 4.52129 109.958 4.4844 109.938 4.4188C109.933 4.35321 109.958 4.26302 109.888 4.22202C109.601 4.08674 109.355 3.87766 109.081 3.71368C108.982 3.63169 108.855 3.5866 108.782 3.47591C108.499 3.31603 108.236 3.11925 107.957 2.94297C107.904 2.91018 107.863 2.85688 107.818 2.81179C107.843 2.7257 107.851 2.63141 107.851 2.54122C107.847 2.02058 107.851 1.49994 107.847 0.979296C107.859 0.897305 107.855 0.803016 107.781 0.749722C107.289 0.573442 106.801 0.384864 106.314 0.204485C106.162 0.130693 105.994 0.0896976 105.83 0.0651004H84.8775C84.7875 0.0691999 84.7014 0.114295 84.6112 0.134792Z" fill="#F8F3B5" stroke="#F8F3B5" stroke-width="0.094"/>
<path d="M82.8977 0.979296C83.2584 1.13098 83.6437 1.21707 84.0086 1.36465C84.2054 1.44254 84.2669 1.65572 84.353 1.8279C84.2668 1.91399 84.1643 1.98368 84.0618 2.04927C83.6847 2.30344 83.2993 2.54942 82.9263 2.81179C82.8812 2.7011 82.8977 2.57811 82.8935 2.45513C82.8977 1.96318 82.8936 1.47124 82.8977 0.979296ZM106.736 1.36465C107.101 1.22117 107.482 1.12278 107.847 0.979296C107.851 1.49994 107.847 2.02058 107.851 2.54122C107.851 2.63141 107.843 2.7257 107.818 2.81179C107.498 2.59041 107.175 2.38134 106.855 2.16406C106.699 2.04927 106.527 1.96318 106.388 1.8238C106.474 1.65162 106.539 1.44254 106.736 1.36465Z" fill="#F7B402" stroke="#F7B402" stroke-width="0.094"/>
<path d="M89.1534 1.53273C89.6044 1.42614 90.1086 1.8279 90.0717 2.29934C90.0758 2.76259 89.5879 3.13975 89.1411 3.03316C88.9608 2.97167 88.7885 2.87738 88.6779 2.7175C88.5344 2.50022 88.5015 2.20915 88.6164 1.97138C88.6984 1.74181 88.9198 1.58603 89.1534 1.53273ZM100.849 1.791C101.038 1.58193 101.337 1.46304 101.616 1.53683C101.825 1.59832 102.03 1.73361 102.12 1.93859C102.3 2.29115 102.161 2.76669 101.808 2.95117C101.497 3.12335 101.103 3.04136 100.866 2.79129C100.624 2.51662 100.607 2.06567 100.849 1.791Z" fill="#BDA727" stroke="#BDA727" stroke-width="0.094"/>
<path d="M84.0619 2.04927C84.1644 1.98368 84.2669 1.91399 84.353 1.8279L84.3816 1.8566C84.4103 2.06977 84.3898 2.28705 84.398 2.50022C84.3857 3.13975 84.4103 3.78337 84.3816 4.4229C83.1887 4.4229 81.9958 4.4147 80.8028 4.4229C80.77 4.28762 80.8848 4.20563 80.9873 4.14413C81.5817 3.76288 82.1556 3.34472 82.7501 2.95937C82.8157 2.91837 82.873 2.86508 82.9263 2.81179C83.2994 2.54942 83.6847 2.30344 84.0619 2.04927ZM106.346 1.96728C106.346 1.91399 106.359 1.86889 106.387 1.8238C106.527 1.96318 106.699 2.04927 106.855 2.16406C107.175 2.38134 107.498 2.59041 107.818 2.81179C107.863 2.85688 107.904 2.91017 107.957 2.94297C108.236 3.11925 108.499 3.31603 108.782 3.47591C108.855 3.5866 108.982 3.63169 109.081 3.71368C109.355 3.87766 109.601 4.08674 109.888 4.22202C109.958 4.26302 109.933 4.35321 109.938 4.4188C108.745 4.4229 107.556 4.4147 106.363 4.4229C106.342 4.25892 106.355 4.09494 106.351 3.93506C106.351 3.27913 106.342 2.62321 106.346 1.96728Z" fill="#F7E62D" stroke="#F7E62D" stroke-width="0.094"/>
<path d="M109.938 4.4188C108.745 4.4229 107.556 4.4147 106.363 4.4229C106.342 4.25892 106.355 4.09494 106.351 3.93506C106.351 3.27913 106.342 2.62321 106.346 1.96728C106.346 1.91399 106.359 1.86889 106.387 1.8238C106.474 1.65162 106.539 1.44254 106.736 1.36465C107.101 1.22117 107.482 1.12278 107.847 0.979296C107.859 0.897306 107.855 0.803016 107.781 0.749722C107.289 0.573443 106.802 0.384864 106.314 0.204485C106.162 0.130693 105.994 0.0896979 105.83 0.0651007H84.8776C84.7875 0.0692002 84.7014 0.114295 84.6112 0.134793C84.0864 0.33567 83.5576 0.528348 83.0329 0.729225C82.9632 0.741523 82.9262 0.803016 82.8894 0.85631C82.8935 0.889106 82.8976 0.9465 82.8976 0.979296C83.2584 1.13098 83.6436 1.21707 84.0086 1.36465C84.2053 1.44254 84.2668 1.65572 84.3529 1.8279L84.3815 1.8566C84.4102 2.06977 84.3897 2.28705 84.3979 2.50022C84.3856 3.13975 84.4102 3.78337 84.3815 4.4229C83.1886 4.4229 81.9957 4.4147 80.8027 4.4229C80.7822 4.49669 80.8191 4.55819 80.897 4.53769C82.1842 4.52949 83.4674 4.54589 84.7547 4.52539C86.6691 4.52539 88.5794 4.52949 90.4939 4.52539L90.5226 4.51309C90.6087 4.53359 90.6947 4.52539 90.7849 4.52539C94.253 4.52539 97.7211 4.52949 101.193 4.52539C102.284 4.52949 103.378 4.52539 104.473 4.52539C106.277 4.52539 108.085 4.54179 109.888 4.53359C109.942 4.52129 109.958 4.4844 109.938 4.4188ZM88.6164 1.97138C88.6984 1.74181 88.9197 1.58603 89.1535 1.53273C89.6044 1.42614 90.1086 1.8279 90.0717 2.29935C90.0758 2.76259 89.5879 3.13975 89.1412 3.03316C88.9608 2.97167 88.7885 2.87738 88.6779 2.7175C88.5344 2.50022 88.5016 2.20916 88.6164 1.97138ZM100.849 1.791C101.038 1.58193 101.337 1.46304 101.616 1.53683C101.825 1.59833 102.03 1.73361 102.12 1.93859C102.3 2.29115 102.161 2.76669 101.808 2.95117C101.497 3.12335 101.103 3.04136 100.866 2.79129C100.624 2.51662 100.607 2.06567 100.849 1.791Z" fill="url(#paint1_radial_2_79)" stroke="#FCD109" stroke-width="0.094"/>
<path d="M101.894 6.22038C101.951 6.23268 101.595 5.87824 101.665 5.86184C101.731 5.87004 101.979 5.67699 102.28 5.83449C102.58 5.992 102.506 6.36059 102.472 6.49726C102.431 6.65993 102.328 6.76373 102.246 6.84573C102.201 6.88262 102.1 6.94001 102.038 6.93591C102.075 6.73504 101.956 6.70224 101.948 6.49726L101.894 6.22038Z" fill="url(#paint2_linear_2_79)" stroke="#FCD109" stroke-width="0.094"/>
<path d="M88.7892 6.44262C88.781 6.64759 88.6621 6.68039 88.6991 6.88127C88.6376 6.88537 88.5364 6.82797 88.4913 6.79108C88.4094 6.70909 88.3059 6.60529 88.2653 6.44262C88.2311 6.30598 88.1566 5.93739 88.4572 5.77985C88.7578 5.6223 89.0065 5.81535 89.0721 5.80719C89.1418 5.82359 88.7857 6.17803 88.843 6.16574L88.7892 6.44262Z" fill="url(#paint3_linear_2_79)" stroke="#FCD109" stroke-width="0.094"/>
<path d="M101.357 8.84654C101.419 8.793 101.46 8.793 101.542 8.793C101.05 9.85888 100.476 10.9248 99.6132 11.7546C99.5209 11.837 99.4234 11.9134 99.3214 11.9833C99.2226 12.0556 99.1257 12.1234 99.0294 12.1925C98.9352 12.2579 98.8414 12.3238 98.7502 12.3924C98.5165 12.5195 98.3115 12.6958 98.0533 12.7737C97.5818 12.9992 97.0736 13.1508 96.5612 13.2574C96.3603 13.2903 96.1553 13.3394 95.9503 13.3435C95.6962 13.4174 95.4256 13.364 95.1673 13.3804C95.0239 13.405 94.8967 13.323 94.7574 13.3394C94.6365 13.3223 94.5158 13.3018 94.3959 13.2779C94.2742 13.253 94.1534 13.2243 94.0335 13.1918C92.1542 12.6056 90.3095 11.1707 89.772 9.23022C89.7478 9.09953 89.7356 8.96691 89.7355 8.834C89.7929 8.94878 89.8524 9.06275 89.9139 9.17565C90.6784 10.8428 92.1952 12.1546 93.9872 12.5502C94.1326 12.6165 94.29 12.5933 94.4294 12.6507C94.5565 12.6507 94.6795 12.6466 94.8025 12.6876C95.2247 12.6957 95.647 12.6917 96.0692 12.6917C96.1265 12.6958 96.1798 12.6671 96.2373 12.6548C96.941 12.6309 97.6305 12.439 98.2726 12.1479C98.401 12.0897 98.5275 12.0275 98.6519 11.9619C98.7607 11.9046 98.867 11.8425 98.9703 11.7759C99.0718 11.7104 99.1706 11.6407 99.2662 11.5669C100.025 10.9658 100.681 10.1868 101.126 9.29114C101.211 9.12994 101.289 8.98068 101.357 8.84654Z" fill="#BDA727" stroke="#BDA727" stroke-width="0.094"/>
<path d="M100.689 12.4908C101.907 11.7775 103.317 11.4331 104.719 11.3675C105.174 11.3265 105.633 11.3388 106.084 11.3962C106.379 11.4659 106.683 11.5479 106.916 11.7488C106.797 11.757 106.683 11.7037 106.564 11.6873C106.228 11.6217 105.879 11.6463 105.539 11.6381C104.551 11.6381 103.555 11.716 102.6 11.9865C102.1 12.1382 101.599 12.3145 101.144 12.5769C100.357 13.0114 99.648 13.5854 99.0741 14.2741C98.0493 15.4507 97.4466 16.9429 97.1556 18.4638C97.0162 19.2796 96.8562 20.0912 96.7292 20.9111C96.5243 20.9316 96.3152 20.9194 96.1102 20.9194C95.2083 20.9153 94.3065 20.9111 93.4046 20.9031C93.2119 20.9111 93.0232 20.8662 92.8307 20.8784C91.1909 20.8865 89.5511 20.8743 87.9113 20.8743L87.9441 20.8619C89.1616 20.7348 90.3833 20.5913 91.6008 20.4725C93.1462 20.4643 94.6877 20.4683 96.2332 20.4725C96.2823 20.4643 96.3685 20.4888 96.3767 20.4191C96.5038 19.7551 96.6267 19.091 96.7537 18.4268C96.9301 17.5045 97.2089 16.5944 97.6393 15.754C98.3157 14.4011 99.3857 13.2533 100.689 12.4908Z" fill="#0D69B3" stroke="#0D69B3" stroke-width="0.094"/>
<path d="M102.6 11.9865C103.555 11.716 104.551 11.6381 105.539 11.6381C105.879 11.6463 106.228 11.6217 106.564 11.6873C106.683 11.7037 106.797 11.757 106.916 11.7488C107.109 11.9045 107.224 12.1341 107.31 12.3637C107.499 12.9089 107.605 13.4747 107.695 14.0445C107.699 14.2741 107.74 14.5323 107.617 14.7414C107.503 14.9464 107.273 15.0448 107.056 15.1063C106.265 15.3113 105.436 15.1185 104.645 15.3113C103.994 15.4506 103.387 15.8114 102.973 16.332C102.485 16.9387 102.227 17.693 102.083 18.4474C101.972 19.1197 101.833 19.792 101.722 20.4684C101.673 20.6201 101.644 20.7841 101.616 20.9441C102.39 20.9564 103.165 20.9441 103.94 20.9522C104.235 20.9441 104.53 20.9604 104.826 20.9399C104.99 21.3171 104.953 21.7435 104.899 22.1411C104.834 22.5879 104.727 23.0306 104.526 23.4406C104.358 23.789 104.08 24.1088 103.698 24.2318C103.502 24.3097 103.288 24.2933 103.079 24.2933C102.39 24.2933 101.702 24.3015 101.013 24.2933C100.902 24.7976 100.829 25.3141 100.73 25.8266C100.55 26.8227 100.374 27.823 100.193 28.8233C100.189 28.8561 100.185 28.9258 100.185 28.9627V28.9668C98.3936 28.9668 96.6062 28.971 94.8148 28.9668C94.8189 28.9505 94.823 28.9217 94.8271 28.9053C94.8313 28.8848 94.8353 28.8397 94.8394 28.8152C94.8435 28.848 94.8476 28.9095 94.8517 28.9381C94.9624 28.9505 95.1633 29.0078 95.192 28.848C95.4708 27.3393 95.729 25.8225 96.016 24.3138C95.9053 24.2892 95.7905 24.2892 95.6757 24.3097C95.6594 24.3671 95.6429 24.4245 95.6224 24.4819L95.647 24.2974C94.5321 24.2932 93.4128 24.2974 92.2979 24.2932C92.0272 24.2851 91.7485 24.2932 91.478 24.2604C91.0147 24.24 90.5474 24.2563 90.0842 24.2112C89.5102 24.2112 88.9404 24.158 88.3665 24.158C87.9156 24.1129 87.4605 24.1292 87.0055 24.1087C86.7104 24.0719 86.407 24.0882 86.1078 24.076C85.6199 24.0226 85.1239 24.0597 84.6361 24.0062C84.1195 24.0104 83.603 23.9652 83.0865 23.953C83.0906 23.9489 83.0947 23.9325 83.0947 23.9284C83.2669 23.9325 83.4349 23.9201 83.6071 23.916C83.9884 23.8669 84.3737 23.8997 84.755 23.8464C85.1526 23.8464 85.5462 23.7931 85.9438 23.7931C86.2964 23.7439 86.653 23.7726 87.0055 23.7234C87.4196 23.7234 87.8254 23.6701 88.2395 23.666C88.5798 23.6209 88.9241 23.6455 89.2644 23.6004C89.662 23.6045 90.0556 23.543 90.4532 23.5471C90.8426 23.5019 91.2402 23.5143 91.6297 23.4733C91.5928 23.3216 91.5641 23.17 91.5314 23.0182C91.5027 22.9239 91.3879 22.9444 91.3141 22.9321C90.4245 22.805 89.539 22.6779 88.6535 22.5549C88.7109 22.5097 88.7888 22.5302 88.8544 22.5222C89.5431 22.4688 90.2277 22.4073 90.9164 22.3582C91.0722 22.3499 91.2239 22.3213 91.3797 22.3172C91.31 22.104 91.269 21.8703 91.1747 21.6735C89.7031 21.448 88.2313 21.2472 86.7637 21.0053C87.1449 20.9438 87.5303 20.9151 87.9115 20.8741C89.5513 20.8741 91.1911 20.8865 92.8309 20.8782C93.0235 20.866 93.2121 20.9111 93.4048 20.9029C94.3067 20.9111 95.2086 20.9152 96.1104 20.9192C96.3154 20.9192 96.5245 20.9315 96.7295 20.9111C96.8565 20.0911 97.0164 19.2794 97.1558 18.4637C97.4469 16.9427 98.0495 15.4505 99.0743 14.274C99.6483 13.5852 100.357 13.0113 101.145 12.5767C101.599 12.3145 102.099 12.1382 102.6 11.9865Z" fill="#107BD4" stroke="#107BD4" stroke-width="0.094"/>
<path d="M101.722 20.4684C102.501 20.4726 103.284 20.4643 104.067 20.4726C104.379 20.4726 104.699 20.6447 104.826 20.9399C104.53 20.9604 104.235 20.9441 103.94 20.9522C103.165 20.9441 102.39 20.9564 101.616 20.9441C101.644 20.7841 101.673 20.6201 101.722 20.4684ZM95.6756 24.3097C95.7904 24.2892 95.9053 24.2892 96.0159 24.3138C95.7289 25.8225 95.4707 27.3393 95.1919 28.848C95.1632 29.0078 94.9623 28.9505 94.8517 28.9381C94.8475 28.9095 94.8435 28.848 94.8394 28.8152C95.0976 27.3722 95.3476 25.925 95.6224 24.482C95.6428 24.4245 95.6592 24.3672 95.6756 24.3097Z" fill="#0D69B3" stroke="#0D69B3" stroke-width="0.094"/>
<path d="M102.081 6.33517C102.048 6.27368 102.044 6.19989 102.044 6.13019L102.011 6.13429C101.962 5.95391 101.81 5.78173 101.614 5.77353C101.466 5.76123 101.282 5.76533 101.196 5.90472C101.032 6.12609 101.109 6.40896 101.101 6.65903C101.101 6.67543 101.105 6.70413 101.105 6.72053C101.105 6.88861 101.085 7.05259 101.056 7.21657C101.032 7.26576 101.019 7.31906 101.019 7.37645C100.95 7.76181 100.81 8.14306 100.622 8.49152C100.585 8.54072 100.556 8.59401 100.544 8.6514C100.421 8.86458 100.273 9.06136 100.122 9.25814C100.097 9.27863 100.076 9.30323 100.056 9.32783C99.9493 9.45901 99.8346 9.5697 99.7156 9.68449C99.687 9.70088 99.6665 9.72138 99.6418 9.73778C99.5025 9.87306 99.3467 10.0002 99.1786 10.1026C99.1581 10.1149 99.1376 10.1313 99.113 10.1477C98.0635 10.8406 96.7886 11.1275 95.5464 11.1398C94.4929 11.1726 93.4311 10.9471 92.48 10.4921C92.4637 10.4839 92.4227 10.4675 92.4062 10.4593C92.2464 10.3732 92.0824 10.2994 91.9348 10.1928C91.902 10.1764 91.8692 10.1559 91.8323 10.1395C91.6806 10.0493 91.5371 9.95096 91.4018 9.83617C91.3568 9.79517 91.3076 9.76238 91.2584 9.72548C91.1108 9.6066 90.9591 9.47951 90.8321 9.33603C90.7993 9.29913 90.7664 9.26633 90.7337 9.23354C90.287 8.77029 89.9385 8.20456 89.754 7.58963C89.5777 7.10178 89.6024 6.56884 89.5819 6.0564C89.4342 5.83093 89.1227 5.70384 88.8768 5.84323C88.7743 5.91702 88.762 6.0523 88.6841 6.14659C88.557 7.49944 89.135 8.84818 90.0574 9.82387C90.0574 9.85667 90.0738 9.87716 90.1026 9.88946C90.2665 10.0411 90.4263 10.1969 90.5903 10.3445C90.619 10.3732 90.6518 10.4019 90.6887 10.4265C90.8527 10.5618 91.029 10.6848 91.2011 10.8119C91.2339 10.8365 91.2667 10.857 91.3036 10.8775C91.5291 11.0086 91.7422 11.1644 91.9841 11.2546C92.0005 11.2669 92.0292 11.2874 92.0456 11.2956C92.8245 11.6687 93.6649 11.9228 94.5258 12.0048C94.6201 12.0048 94.7144 12.013 94.8087 12.0335C95.2186 12.0581 95.6285 12.0458 96.0385 12.0376C97.3051 11.9269 98.6129 11.6195 99.6706 10.8734L99.6829 10.8897C99.7157 10.8611 99.7444 10.8365 99.7772 10.8119C99.9454 10.6889 100.109 10.5577 100.273 10.4224C100.31 10.3937 100.351 10.3609 100.388 10.324C100.568 10.1272 100.778 9.94686 100.929 9.72138L100.954 9.73368C100.966 9.71318 100.987 9.67219 100.999 9.65169C101.138 9.46311 101.265 9.26633 101.388 9.06956C101.397 9.05726 101.417 9.03676 101.425 9.02446L101.409 9.00806C101.421 8.99167 101.45 8.95887 101.462 8.94247C101.688 8.48332 101.888 8.00368 101.958 7.49534C101.987 7.48304 102.003 7.45844 102.003 7.42974C102.008 7.26576 102.065 7.10998 102.049 6.946C102.085 6.74512 102.089 6.54015 102.081 6.33517Z" fill="white" stroke="white" stroke-width="0.094"/>
<mask id="mask0_2_79" style="mask-type:luminance" maskUnits="userSpaceOnUse" x="88" y="5" width="15" height="8">
<path d="M102.081 6.33517C102.048 6.27368 102.044 6.19989 102.044 6.13019L102.011 6.13429C101.962 5.95391 101.81 5.78173 101.614 5.77353C101.466 5.76123 101.281 5.76533 101.195 5.90472C101.031 6.12609 101.109 6.40896 101.101 6.65903C101.101 6.67543 101.105 6.70413 101.105 6.72053C101.105 6.88861 101.085 7.05259 101.056 7.21657C101.031 7.26576 101.019 7.31906 101.019 7.37645C100.95 7.76181 100.81 8.14306 100.622 8.49152C100.585 8.54072 100.556 8.59401 100.544 8.6514C100.421 8.86458 100.273 9.06136 100.121 9.25814C100.097 9.27863 100.076 9.30323 100.056 9.32783C99.9492 9.45901 99.8345 9.5697 99.7156 9.68449C99.6869 9.70088 99.6664 9.72138 99.6418 9.73778C99.5024 9.87306 99.3466 10.0002 99.1785 10.1026C99.158 10.1149 99.1375 10.1313 99.1129 10.1477C98.0634 10.8406 96.7886 11.1275 95.5464 11.1398C94.4929 11.1726 93.431 10.9471 92.4799 10.4921C92.4636 10.4839 92.4226 10.4675 92.4062 10.4593C92.2463 10.3732 92.0823 10.2994 91.9347 10.1928C91.9019 10.1764 91.8691 10.1559 91.8322 10.1395C91.6806 10.0493 91.5371 9.95096 91.4018 9.83617C91.3567 9.79517 91.3075 9.76238 91.2583 9.72548C91.1107 9.6066 90.959 9.47951 90.832 9.33603C90.7993 9.29913 90.7664 9.26633 90.7337 9.23354C90.2869 8.77029 89.9384 8.20456 89.754 7.58963C89.5776 7.10178 89.6023 6.56884 89.5818 6.0564C89.4341 5.83093 89.1227 5.70384 88.8767 5.84323C88.7742 5.91702 88.7619 6.0523 88.684 6.14659C88.5569 7.49944 89.135 8.84818 90.0573 9.82387C90.0573 9.85667 90.0737 9.87716 90.1025 9.88946C90.2665 10.0411 90.4263 10.1969 90.5903 10.3445C90.619 10.3732 90.6518 10.4019 90.6886 10.4265C90.8526 10.5618 91.0289 10.6848 91.2011 10.8119C91.2339 10.8365 91.2667 10.857 91.3036 10.8775C91.529 11.0086 91.7421 11.1644 91.9841 11.2546C92.0005 11.2669 92.0292 11.2874 92.0456 11.2956C92.8245 11.6687 93.6649 11.9228 94.5257 12.0048C94.62 12.0048 94.7143 12.013 94.8086 12.0335C95.2185 12.0581 95.6285 12.0458 96.0384 12.0376C97.3051 11.9269 98.6129 11.6195 99.6705 10.8734L99.6828 10.8897C99.7156 10.8611 99.7443 10.8365 99.7771 10.8119C99.9453 10.6889 100.109 10.5577 100.273 10.4224C100.31 10.3937 100.351 10.3609 100.388 10.324C100.568 10.1272 100.777 9.94686 100.929 9.72138L100.954 9.73368C100.966 9.71318 100.987 9.67219 100.999 9.65169C101.138 9.46311 101.265 9.26633 101.388 9.06956C101.396 9.05726 101.417 9.03676 101.425 9.02446L101.409 9.00806C101.421 8.99167 101.45 8.95887 101.462 8.94247C101.688 8.48332 101.888 8.00368 101.958 7.49534C101.987 7.48304 102.003 7.45844 102.003 7.42974C102.007 7.26576 102.065 7.10998 102.048 6.946C102.085 6.74512 102.089 6.54015 102.081 6.33517Z" fill="white"/>
</mask>
<g mask="url(#mask0_2_79)">
<path d="M88.3691 6.19669C88.7014 6.30094 89.4648 6.03865 89.6809 6.27868M88.5604 7.20788C88.8788 7.09707 89.5617 6.8347 89.8449 6.98925M88.8884 8.21911C89.0423 8.26896 89.3457 7.99851 89.4965 7.91927C89.7207 7.80133 89.9508 7.71093 90.2002 7.67252M89.3803 9.28499C89.5391 9.05935 89.7291 8.87196 89.9585 8.71167C90.1858 8.55285 90.8078 8.12851 91.0747 8.27376M89.8449 10.0502C90.0251 9.90697 90.0985 9.65353 90.2877 9.503C90.5166 9.3209 90.8673 9.28823 91.1021 9.17565M90.6169 10.6173C90.6708 10.221 91.0733 9.74266 91.4573 9.77689M91.2114 11.1708C91.4143 11.1504 91.586 10.6962 91.7232 10.5423C91.9288 10.3117 92.1418 10.2408 92.4138 10.1595M92.3865 11.6627C92.3734 11.3759 92.6697 10.5536 93.0151 10.5968M93.2611 11.936C93.2467 11.5971 93.4219 10.5776 93.835 10.5422M94.163 12.4826C94.0846 12.0086 94.0897 11.3229 94.4635 10.9794M95.2835 12.592C95.2418 12.1968 94.8492 11.3981 95.2835 11.0888M96.486 12.3186C96.2985 12.1013 96.1896 11.2441 96.2673 11.0068M97.6338 12.1273C97.4893 11.8648 97.3101 11.6183 97.2553 11.3136C97.2226 11.1315 97.28 10.8721 97.2512 10.7335M98.5904 11.7174C98.2768 11.5123 98.1898 10.7584 98.2897 10.4329M99.5195 11.3074C99.2965 10.829 99.0587 10.458 99.0549 9.91357M100.421 10.4329C100.075 10.1997 99.6326 9.77591 99.6835 9.31233M101.378 9.69494C100.851 9.57827 100.219 9.10711 99.9022 8.68371M101.815 8.79304C101.435 8.71159 100.18 8.2219 100.257 7.72717M102.225 7.8365C101.696 7.64247 100.926 7.46803 100.503 7.09858M102.498 6.96191C102.165 6.99044 101.687 6.82904 101.349 6.77058C100.972 6.70569 100.624 6.57889 100.257 6.49726M102.17 6.1147C101.527 6.15319 100.924 5.93317 100.339 5.73209" stroke="#D1D1D1" stroke-width="2"/>
</g>
<path d="M19.8963 8.08583C20.4904 7.99618 21.1741 7.94014 21.6785 8.31C21.9923 8.54531 22.1043 8.97121 22.0819 9.35238C22.1043 9.98002 21.813 10.6526 21.2526 10.9776C20.7594 11.2467 20.1654 11.269 19.6161 11.213C19.2463 11.1682 18.8764 10.9665 18.6859 10.6302C18.2599 9.65505 18.7867 8.27638 19.8963 8.08583ZM2.11989 8.79198C2.15346 8.45569 2.45612 8.15307 2.80355 8.16434C5.39277 8.16434 7.97067 8.17549 10.5486 8.16434C10.8288 8.14191 11.1315 8.26515 11.2659 8.51173C11.4564 8.84802 11.2883 9.21788 11.2659 9.5654C11.1875 10.0361 11.2098 10.6638 10.6607 10.8431C8.77769 10.8991 6.89464 10.8431 5.0116 10.8655C4.83229 12.0536 4.66418 13.2305 4.48478 14.4074C4.48478 14.4522 4.49605 14.5532 4.49605 14.5979C5.87466 14.5867 7.25327 14.5979 8.63187 14.5867C9.013 14.5643 9.41642 14.8895 9.38281 15.2928C9.34923 15.7076 9.25953 16.1111 9.20354 16.5258C9.15861 16.806 8.93449 17.0638 8.64306 17.1198C7.10749 17.1535 5.54949 17.0862 4.01408 17.1535C3.76742 18.846 3.47599 20.5384 3.21817 22.2309C3.18464 22.5672 2.91555 22.8586 2.57931 22.8697C1.94051 22.881 1.30155 22.881 0.66274 22.8697C0.24804 22.881 -0.0882405 22.4213 0.0237975 22.0291C0.707709 17.6131 1.4138 13.2082 2.11989 8.79198ZM13.5075 8.18664C14.0904 8.14187 14.6844 8.17549 15.2673 8.16434C15.626 8.14191 15.9846 8.42208 16.0182 8.79198C16.0182 9.08333 15.9397 9.37481 15.9061 9.6662C15.4354 12.6701 14.9534 15.6741 14.4826 18.678C14.4154 19.1599 14.2921 19.6755 14.4378 20.1687C14.606 20.6618 15.3568 20.4488 15.5362 20.9644C15.6483 21.3791 15.5249 21.8162 15.4913 22.2422C15.4577 22.8026 14.8188 22.9258 14.3818 23.0493C13.4291 23.2286 12.2746 23.0941 11.5909 22.3094C11.0977 21.7379 11.064 20.9308 11.165 20.2135C11.759 16.4026 12.353 12.5918 12.9583 8.76955C12.992 8.48931 13.2161 8.23153 13.5075 8.18664ZM35.7561 8.79198C35.7896 8.45569 36.0923 8.16434 36.4286 8.16434H38.1323C38.5582 8.15307 38.9057 8.61266 38.8048 9.0161C38.4125 11.5044 38.009 13.9928 37.6168 16.4809C38.2108 16.3913 38.8833 16.2792 39.298 15.7973C39.9928 15.0126 40.5646 14.1049 40.9904 13.1522C41.1361 12.7822 41.2146 12.2442 41.6966 12.177C42.3355 12.1545 42.9855 12.1657 43.6244 12.177C44.0615 12.1657 44.3865 12.6589 44.2408 13.0624C44.0727 13.6566 43.7925 14.2057 43.5011 14.7325C42.851 15.7861 42.1338 16.8285 41.1922 17.6579C41.6069 18.902 42.1337 20.1126 42.5932 21.3344C42.7277 21.7378 43.0529 22.2086 42.7502 22.601C42.4026 23.0717 41.7526 22.8362 41.2706 22.8922C40.7662 22.8362 40.0377 23.094 39.7575 22.5224C39.2307 21.3006 38.7936 20.0454 38.2555 18.8236C37.9417 18.8347 37.6167 18.846 37.3028 18.8124C37.2805 18.8573 37.2356 18.9468 37.2132 18.9918C37.045 20.1126 36.8657 21.2335 36.6863 22.3543C36.6191 22.6233 36.4061 22.8587 36.1148 22.8811C35.5207 22.9035 34.9155 22.8922 34.3102 22.8922C34.0524 22.8922 33.8171 22.7242 33.7049 22.5C33.5929 22.2757 33.66 22.018 33.6938 21.7715C34.3886 17.4449 35.0723 13.1184 35.7561 8.79198ZM66.9041 10.0137C66.9826 9.69978 67.2851 9.48689 67.599 9.49804C68.0474 9.50931 68.5069 9.48689 68.9664 9.50931C69.3363 9.52046 69.6277 9.89037 69.5828 10.249C69.5156 10.8879 69.3586 11.5269 69.3138 12.1656C69.7509 12.1656 70.1992 12.1545 70.6364 12.1656C71.0287 12.1656 71.3538 12.5692 71.2865 12.9502C71.2304 13.2978 71.1519 13.6341 71.0959 13.9814C71.0399 14.2729 70.7934 14.5083 70.5132 14.5531C69.9751 14.5867 69.4484 14.5307 68.9216 14.5867C68.6974 16.0886 68.4508 17.5905 68.2154 19.0926C68.1817 19.44 68.1594 19.8323 68.3611 20.1349C68.6638 20.5048 69.1905 20.3702 69.6165 20.4152C69.9527 20.516 70.1657 20.886 70.1096 21.2223C70.0535 21.6033 70.0423 21.9844 69.9527 22.3542C69.8182 22.7689 69.3363 22.8474 68.9663 22.9482C67.9464 23.2173 66.7695 23.2173 65.8617 22.6232C65.0211 22.0515 64.8865 20.9419 64.9762 20.0004C65.2115 18.1846 65.5815 16.38 65.7832 14.553C65.4694 14.5642 65.0883 14.6091 64.853 14.3288C64.584 14.0487 64.7185 13.6339 64.7633 13.2864C64.8306 12.9165 64.8193 12.4346 65.2229 12.2328C65.5478 12.1094 65.9178 12.1992 66.2652 12.1543C66.4782 11.4371 66.6799 10.7198 66.9041 10.0137ZM60.5713 13.6452C61.2775 12.9391 62.1293 12.3562 63.1044 12.0649C63.5303 11.8743 64.0795 12.233 64.0684 12.7038C63.9899 13.3202 63.8442 13.9254 63.7433 14.5307C63.6984 14.8333 63.4406 15.0912 63.138 15.1248C62.0396 15.3152 61.0869 15.9764 60.3247 16.7611C60.1342 16.9966 59.854 17.2207 59.8204 17.5457C59.5851 19.1149 59.3384 20.6841 59.0919 22.2533C59.0583 22.5895 58.7667 22.9147 58.4193 22.8923H56.7156C56.3234 22.9147 55.9759 22.5225 56.0207 22.1301C56.5139 19.0253 57.0072 15.9318 57.489 12.8269C57.5115 12.5132 57.7357 12.2105 58.0606 12.1769C58.4754 12.1545 58.89 12.1656 59.316 12.1656C59.6522 12.1656 59.966 12.4683 59.966 12.8158C59.966 13.2977 59.9212 13.7909 59.91 14.284C60.1791 14.116 60.3472 13.847 60.5713 13.6452ZM18.6746 12.2217C19.2798 12.0985 19.9075 12.1994 20.5127 12.1657C20.8602 12.1209 21.2301 12.345 21.2861 12.6926C21.331 13.0063 21.2412 13.309 21.2076 13.6117C20.7481 16.4923 20.2885 19.3729 19.8402 22.2534C19.8066 22.5786 19.5377 22.9036 19.1901 22.8923C18.5849 22.8923 17.9796 22.9036 17.3633 22.8812C16.9821 22.8363 16.7019 22.3993 16.8028 22.0293C17.2848 19.0367 17.7444 16.0552 18.2263 13.0624C18.2487 12.7374 18.3384 12.3562 18.6746 12.2217ZM54.9447 12.3675C53.2746 12.0536 51.5711 11.8294 49.8785 11.9976C48.3654 12.1882 46.8411 12.8719 45.9109 14.116C44.6219 15.7524 44.1847 17.9494 44.4761 19.9894C44.6331 20.9645 45.0589 21.9509 45.8548 22.5561C46.5945 23.1278 47.5921 23.2061 48.4888 23.0604C49.744 22.8138 50.8088 22.007 51.6831 21.1102C51.7279 21.4913 51.6382 21.8724 51.6607 22.2423C51.6831 22.5896 51.9969 22.9147 52.3444 22.8923H53.4877C53.8239 22.8923 54.1042 22.5786 54.1266 22.2534C54.6085 19.2159 55.0905 16.1895 55.5612 13.1633C55.6284 12.7822 55.3259 12.4123 54.9447 12.3675ZM51.7953 17.6467C51.3469 18.4874 50.7192 19.2496 50.013 19.8995C49.6096 20.2358 49.0939 20.5833 48.5449 20.4713C48.0068 20.3592 47.749 19.7988 47.6258 19.3168C47.3456 18.0615 47.6033 16.6939 48.3094 15.6068C48.6232 15.1023 49.1276 14.7213 49.7105 14.5643C50.5286 14.3625 51.3918 14.4634 52.1876 14.6876L52.2324 14.7325C52.1315 15.7076 51.9409 16.6716 51.7953 17.6467ZM32.9428 15.9655C32.9316 14.8446 32.629 13.6677 31.8444 12.827C31.3065 12.233 30.4994 11.9304 29.7149 11.9415C28.4146 11.8968 27.193 12.5357 26.2403 13.3874C26.0272 13.5556 25.8816 13.8022 25.6463 13.9367C25.6463 13.5667 25.6798 13.1969 25.6686 12.8158C25.6798 12.4683 25.3548 12.1657 25.0185 12.1657H23.8752C23.5166 12.1657 23.2252 12.4796 23.2028 12.827C22.4966 17.3104 21.7794 21.7938 21.0732 26.2773C20.9724 26.692 21.3311 27.1179 21.757 27.1067C22.3846 27.0955 23.0235 27.1516 23.64 27.0618C24.1332 26.9273 24.1219 26.3556 24.2004 25.941C24.3797 24.9546 24.5031 23.9682 24.6151 22.9707C26.8231 23.3966 29.3898 23.1052 31.0375 21.4351C32.3824 19.9669 33.01 17.9381 32.9428 15.9655ZM29.8045 17.0975C29.7373 18.1287 29.3674 19.1711 28.6501 19.922C27.7199 20.8075 26.3075 20.6841 25.1643 20.3816C25.142 20.3479 25.1082 20.2807 25.097 20.2471C25.2763 19.272 25.366 18.2856 25.5902 17.3217C26.2179 16.2906 26.98 15.248 28.0672 14.6765C28.4707 14.486 29.0199 14.5308 29.3113 14.9007C29.8045 15.5171 29.8494 16.3466 29.8045 17.0975Z" fill="#107BD4" stroke="#107BD4" stroke-width="0.101"/>
</g>
<defs>
<linearGradient id="paint0_linear_2_79" x1="95.3744" y1="4.90251" x2="95.3744" y2="28.9981" gradientUnits="userSpaceOnUse">
<stop stop-color="#F7E830"/>
<stop offset="1" stop-color="#FDCB06"/>
</linearGradient>
<radialGradient id="paint1_radial_2_79" cx="0" cy="0" r="1" gradientUnits="userSpaceOnUse" gradientTransform="translate(95.2487 15.8925) scale(19.5987 19.599)">
<stop offset="0.596" stop-color="#F29405"/>
<stop offset="0.736" stop-color="#F7D01E"/>
<stop offset="1" stop-color="#FDCB06"/>
</radialGradient>
<linearGradient id="paint2_linear_2_79" x1="102.079" y1="5.77214" x2="102.086" y2="6.91316" gradientUnits="userSpaceOnUse">
<stop stop-color="#FADA1C"/>
<stop offset="1" stop-color="#FDCB06"/>
</linearGradient>
<linearGradient id="paint3_linear_2_79" x1="88.658" y1="5.71749" x2="88.6512" y2="6.85852" gradientUnits="userSpaceOnUse">
<stop stop-color="#FADA1C"/>
<stop offset="1" stop-color="#FDCB06"/>
</linearGradient>
<clipPath id="clip0_2_79">
<rect width="110" height="29" fill="white"/>
</clipPath>
</defs>
</svg>
