<svg width="112" height="25" viewBox="0 0 112 25" fill="none" xmlns="http://www.w3.org/2000/svg">
<g clip-path="url(#clip0_2_62)">
<path d="M80.5919 5.87586V7.19865H80.6638C81.2622 6.39896 82.1274 5.84026 83.1025 5.6239C84.1229 5.33737 85.2085 5.38786 86.198 5.76788C86.945 6.02278 87.5809 6.5283 87.9977 7.19865C88.0626 7.29457 88.1227 7.39368 88.1777 7.49561C88.2059 7.42848 88.2421 7.36503 88.2857 7.30664C88.618 6.83442 89.0403 6.4324 89.5282 6.12358C90.0161 5.81476 90.5602 5.60521 91.1292 5.50692C92.2744 5.26638 93.4674 5.42185 94.5127 5.94785C95.149 6.24873 95.6974 6.70789 96.1055 7.2814C96.5136 7.8549 96.7676 8.52355 96.8433 9.22334C96.9031 9.59815 96.9272 9.97779 96.9153 10.3572V18.8968H93.0909V11.5C93.0852 11.2168 93.0611 10.9342 93.0189 10.6541C92.9607 10.271 92.7803 9.91696 92.5047 9.64459C92.2291 9.37221 91.8729 9.19607 91.4891 9.14235C91.1217 9.05547 90.7374 9.07167 90.3786 9.18916C90.0198 9.30665 89.7004 9.52087 89.4555 9.80824C89.0921 10.2377 88.897 10.7845 88.9066 11.347V18.8968H85.0012V11.464C85.0104 11.101 84.9587 10.739 84.8482 10.3932C84.7322 10.0345 84.5101 9.71949 84.2112 9.48973C83.9124 9.25998 83.5509 9.1263 83.1745 9.10635C82.8721 9.07664 82.5668 9.10411 82.2746 9.18734C81.9109 9.29633 81.5849 9.50497 81.3336 9.78964C81.0824 10.0743 80.9158 10.4236 80.8528 10.7981C80.8338 11.0076 80.8338 11.2185 80.8528 11.428V18.8968H76.8844V5.87586H80.5919ZM107.777 7.09067V5.87586H111.583V17.781C111.589 19.2238 111.213 20.6426 110.494 21.8934C110.148 22.5197 109.68 23.0703 109.117 23.5124C108.555 23.9544 107.909 24.2791 107.219 24.4669C105.566 24.9519 103.806 24.9362 102.161 24.422C100.864 24.0278 99.7421 23.1983 98.985 22.0733C98.6524 21.5992 98.417 21.064 98.2921 20.4986V20.3096C98.3062 20.2504 98.3062 20.1888 98.2921 20.1296L101.748 19.1398C101.791 19.2177 101.818 19.3033 101.829 19.3917C101.99 19.9527 102.329 20.4462 102.795 20.7982C103.26 21.1503 103.827 21.3419 104.411 21.3444C104.877 21.3595 105.343 21.2956 105.788 21.1555C106.243 20.9795 106.646 20.6919 106.96 20.3192C107.275 19.9466 107.491 19.5007 107.588 19.0228C107.727 18.3849 107.775 17.7305 107.732 17.0791C107.198 17.7463 106.428 18.1815 105.581 18.2939C104.428 18.5353 103.229 18.432 102.134 17.997C101.243 17.6776 100.444 17.1461 99.8039 16.4485C99.1643 15.7508 98.7041 14.9079 98.4631 13.9926C98.1937 13.1544 98.0963 12.2705 98.1767 11.3938C98.2571 10.5171 98.5137 9.6656 98.931 8.89039C99.2654 8.19799 99.7333 7.57845 100.308 7.06731C100.882 6.55618 101.552 6.16351 102.278 5.91186C103.408 5.54398 104.62 5.50652 105.77 5.80387C106.566 5.99243 107.273 6.44626 107.777 7.09067ZM102.17 11.9769V12.3818C102.198 12.8779 102.367 13.3556 102.658 13.7589C102.948 14.1622 103.347 14.4743 103.808 14.6585C104.224 14.8268 104.676 14.8886 105.122 14.8385C105.661 14.8317 106.185 14.6537 106.617 14.3303C107.049 14.0068 107.366 13.5546 107.525 13.0387C107.664 12.5877 107.713 12.1138 107.669 11.644C107.646 11.2204 107.524 10.808 107.313 10.4403C107.101 10.0727 106.806 9.76003 106.451 9.52777C106.096 9.29551 105.691 9.15017 105.27 9.10353C104.848 9.05689 104.421 9.11027 104.024 9.25933C103.464 9.4525 102.981 9.82128 102.647 10.3109C102.313 10.8005 102.146 11.3848 102.17 11.9769ZM76.8124 4.07614V-0.000217676H111.52C111.592 1.3456 111.592 2.69433 111.52 4.04015C111.34 4.11214 77.3884 4.14813 76.8124 4.07614ZM71.0893 24.7189V20.6425H96.9243V24.7189H71.0893ZM75.1027 18.8968H71.0264V5.98384H67.022V3.19428H67.3459C68.4814 3.16279 69.5726 2.74723 70.4414 2.01547C71.0042 1.55566 71.3996 0.923073 71.5663 0.215748V0.071771H75.0577L75.1027 18.8968ZM31.6215 20.1656H25.9434C25.8459 20.1818 25.7459 20.1601 25.6639 20.1049C25.5819 20.0496 25.5241 19.9651 25.5025 19.8687L22.5959 11.311C22.5959 11.203 22.524 11.095 22.452 10.9061L22.155 11.7159L19.4554 19.8147C19.4512 19.8658 19.4364 19.9155 19.4118 19.9606C19.3873 20.0057 19.3536 20.0452 19.313 20.0765C19.2723 20.1079 19.2256 20.1304 19.1757 20.1426C19.1259 20.1549 19.074 20.1566 19.0235 20.1476H13.3544C13.5344 19.7067 13.6783 19.2478 13.8223 18.8248L19.0325 4.976C19.1405 4.72404 19.2485 4.60706 19.5364 4.60706H25.2865C25.3932 4.5932 25.5012 4.61965 25.5894 4.68123C25.6776 4.74281 25.7397 4.83509 25.7634 4.94001L31.4956 19.7967C31.5558 19.9127 31.5983 20.037 31.6215 20.1656ZM61.8928 20.1656H56.1787C55.9267 20.1656 55.8187 20.0936 55.7467 19.8687L52.8312 11.311C52.8312 11.203 52.7592 11.095 52.6872 10.9061L52.5433 11.347L49.6637 19.7967C49.6582 19.852 49.6415 19.9057 49.6148 19.9545C49.5881 20.0032 49.5518 20.0461 49.5081 20.0805C49.4644 20.115 49.4143 20.1403 49.3606 20.1549C49.3069 20.1695 49.2509 20.1732 49.1958 20.1656H43.6256C43.6256 20.0216 43.6976 19.9047 43.7336 19.7967L49.3398 4.92201C49.3676 4.8121 49.4359 4.71674 49.531 4.65501C49.6261 4.59328 49.741 4.56972 49.8527 4.58906H55.6388C55.734 4.58111 55.829 4.60634 55.9077 4.66046C55.9865 4.71459 56.044 4.79428 56.0707 4.88602L61.8568 19.9047C61.8526 19.9931 61.8648 20.0816 61.8928 20.1656ZM45.1554 4.66105V9.22334H40.8991V20.2016H34.717V9.25933H30.3077V4.69705L45.1554 4.66105ZM0.000488281 4.66105H14.8842V9.21434H10.6278V20.2016H4.4008V9.25933H0.000488281V4.66105Z" fill="black"/>
</g>
<defs>
<clipPath id="clip0_2_62">
<rect width="111.583" height="24.8181" fill="white"/>
</clipPath>
</defs>
</svg>
