<svg width="81" height="27" viewBox="0 0 81 27" fill="none" xmlns="http://www.w3.org/2000/svg">
<g clip-path="url(#clip0_2_65)">
<mask id="mask0_2_65" style="mask-type:luminance" maskUnits="userSpaceOnUse" x="0" y="0" width="81" height="27">
<path d="M0.00012207 -3.09944e-05H80.9874V26.9957H0.00012207V-3.09944e-05Z" fill="white"/>
</mask>
<g mask="url(#mask0_2_65)">
<path fill-rule="evenodd" clip-rule="evenodd" d="M51.2229 5.94805C51.2207 5.73656 51.2608 5.52678 51.3409 5.33105C51.4211 5.13532 51.5395 4.95759 51.6894 4.80834C51.8392 4.65908 52.0174 4.54131 52.2134 4.46196C52.4095 4.38261 52.6194 4.34329 52.8309 4.3463H53.9629V1.99137C53.9272 1.74352 53.9454 1.4909 54.0161 1.2507C54.0868 1.01049 54.2085 0.788344 54.3728 0.599376C54.5371 0.410409 54.7401 0.259057 54.9682 0.155624C55.1962 0.052191 55.4439 -0.000895004 55.6943 -2.03597e-05C56.0712 0.000401686 56.4379 0.122437 56.74 0.347947C57.042 0.573458 57.2632 0.890406 57.3707 1.25168C57.4427 1.49105 57.4607 1.74391 57.4247 1.99137V4.3463H61.1051C61.4235 4.34275 61.7357 4.43474 62.0013 4.61038C62.267 4.78602 62.4738 5.03725 62.5953 5.33164C62.6951 5.5759 62.7333 5.84096 62.7064 6.10345C62.6796 6.36594 62.5886 6.6178 62.4414 6.8368C62.2943 7.05581 62.0955 7.23524 61.8626 7.35927C61.6297 7.4833 61.3699 7.54811 61.106 7.548H57.4256V13.2198C57.4256 15.9851 58.9679 17.3988 61.106 17.3988C61.5351 17.3995 61.9465 17.5701 62.2502 17.8733C62.5539 18.1765 62.7252 18.5876 62.7267 19.0167C62.7269 19.2296 62.6851 19.4404 62.6036 19.6371C62.5222 19.8338 62.4027 20.0125 62.2521 20.1629C62.1014 20.3133 61.9225 20.4325 61.7257 20.5136C61.5289 20.5947 61.318 20.6361 61.1051 20.6355C57.0449 20.6355 53.9629 17.7776 53.9629 13.2198V7.5489H52.8309C52.406 7.54725 51.9989 7.37817 51.6979 7.07832C51.3969 6.77846 51.2262 6.37292 51.2229 5.94805ZM37.0555 24.8865V18.7269C38.496 19.9931 40.3514 20.6861 42.2693 20.6742C46.7928 20.6742 50.2177 16.9983 50.2177 12.3451C50.2177 7.69287 46.7928 4.01695 42.2693 4.01695C40.345 3.99952 38.4844 4.70505 37.0555 5.99394V5.77707C37.0111 5.46674 36.8839 5.1741 36.6873 4.92988C36.4908 4.68567 36.2321 4.49888 35.9384 4.38915C35.6448 4.27942 35.327 4.25079 35.0184 4.30627C34.7099 4.36175 34.422 4.49929 34.1849 4.70444C33.8671 4.97986 33.6594 5.36075 33.6 5.77707V24.8874C33.6443 25.1979 33.7715 25.4907 33.9681 25.7351C34.1647 25.9794 34.4235 26.1663 34.7173 26.2761C35.0112 26.3858 35.3291 26.4144 35.6378 26.3588C35.9464 26.3032 36.2344 26.1654 36.4715 25.96C36.7893 25.6846 36.997 25.3037 37.0564 24.8874L37.0555 24.8865ZM41.894 7.22045C44.5936 7.22045 46.7326 9.4206 46.7326 12.3451C46.7326 15.2697 44.5945 17.4698 41.894 17.4698C39.1935 17.4698 37.0555 15.2697 37.0555 12.3451V12.1229C37.1518 9.32882 39.1935 7.22045 41.894 7.22045ZM15.6145 12.319C15.627 10.7346 16.0881 9.18615 16.9445 7.85305C17.7999 6.52131 19.016 5.45998 20.4513 4.79263C21.8854 4.12591 23.4797 3.88127 25.0477 4.08731C26.6157 4.29336 28.0927 4.94157 29.3059 5.95615C29.494 6.11933 29.6466 6.31944 29.7542 6.54404C29.8618 6.76865 29.9221 7.01297 29.9313 7.26184C29.9336 7.73082 29.7528 8.18218 29.4274 8.51984L24.6176 14.2609C24.478 14.4423 24.2974 14.5881 24.0906 14.6863C23.8839 14.7845 23.6568 14.8324 23.428 14.8261C23.1096 14.8433 22.7938 14.7612 22.5241 14.5911C22.2544 14.4211 22.0442 14.1714 21.9225 13.8767C21.8417 13.6811 21.8019 13.471 21.8056 13.2594C21.7952 13.0706 21.8228 12.8817 21.8868 12.7038C21.9508 12.5258 22.0499 12.3626 22.1781 12.2237L25.9638 7.77566C25.3441 7.39473 24.6287 7.19838 23.9013 7.20965C21.2144 7.20965 19.0871 9.46829 19.0871 12.319C19.0871 15.1698 21.1838 17.4284 23.9013 17.4284C24.5213 17.4349 25.1359 17.3125 25.7061 17.069C26.2763 16.8255 26.7896 16.4662 27.2137 16.0139L27.4054 15.8555C27.8103 15.5162 28.1469 15.2346 28.7156 15.2346C28.9371 15.2249 29.1583 15.2609 29.3653 15.3405C29.5723 15.4201 29.7607 15.5415 29.9187 15.6971C30.0773 15.8527 30.2022 16.0392 30.2858 16.2451C30.3694 16.451 30.4098 16.6718 30.4046 16.8939C30.3724 17.3166 30.1943 17.7148 29.9007 18.0206C29.1506 18.8658 28.2253 19.5373 27.1892 19.9883C26.153 20.4393 25.031 20.6589 23.9013 20.6319C22.8074 20.6491 21.7212 20.4457 20.7076 20.0339C19.694 19.622 18.7738 19.0101 18.0019 18.2347C17.2282 17.4587 16.6183 16.5352 16.2082 15.519C15.7981 14.5029 15.5962 13.4147 15.6145 12.319ZM8.91148 7.5039H1.96817C1.54404 7.50124 1.13814 7.33111 0.838848 7.03058C0.53844 6.72893 0.369105 6.32099 0.367589 5.89527C0.366073 5.46955 0.532498 5.06041 0.830749 4.75663C0.979781 4.60722 1.15717 4.4891 1.3525 4.4092C1.54782 4.32931 1.75715 4.28926 1.96817 4.29141H12.3678C12.6861 4.28751 12.9982 4.37984 13.2631 4.55631C13.5281 4.73277 13.7335 4.98514 13.8526 5.28035C13.9327 5.47562 13.9723 5.68529 13.9696 5.89766C13.9538 6.32582 13.7744 6.73162 13.4684 7.03148L5.01419 17.1477H12.3678C12.6862 17.1439 12.9984 17.2363 13.2633 17.413C13.5283 17.5896 13.7337 17.8422 13.8526 18.1375C13.9719 18.4319 14.0019 18.7548 13.9389 19.066C13.8758 19.3773 13.7225 19.6631 13.4981 19.8878C13.1984 20.1882 12.7922 20.358 12.3678 20.3602H1.60193C1.38958 20.3579 1.17975 20.3138 0.984437 20.2304C0.789122 20.1471 0.612144 20.026 0.463607 19.8743C0.163054 19.5674 -0.00342019 19.1535 0.000179247 18.7233C0.0109776 18.2986 0.180151 17.8937 0.471705 17.5859L8.91238 7.503L8.91148 7.5039ZM65.7718 7.70997C64.8588 9.07639 64.3715 10.6829 64.3716 12.3262C64.352 13.4226 64.5534 14.5117 64.964 15.5285C65.3745 16.5453 65.9857 17.4689 66.7611 18.2443C67.5364 19.0196 68.4601 19.6308 69.4769 20.0414C70.4937 20.4519 71.5827 20.6534 72.6791 20.6337C74.1145 20.634 75.5256 20.2622 76.7746 19.5549C78.0237 18.8475 79.0682 17.8285 79.8063 16.5974C80.5443 15.3662 80.9509 13.9648 80.9862 12.5298C81.0215 11.0947 80.6844 9.67504 80.0078 8.40905C79.3312 7.14306 78.3381 6.07398 77.1253 5.306C75.9126 4.53802 74.5215 4.09736 73.0878 4.02695C71.6541 3.95654 70.2266 4.2588 68.9444 4.90426C67.6622 5.54973 66.5692 6.51637 65.7718 7.70997ZM72.6791 7.21325C75.4354 7.21325 77.5086 9.50429 77.5086 12.3253C77.5086 15.1167 75.4399 17.4374 72.6791 17.4374C69.9183 17.4374 67.8504 15.1473 67.8504 12.3262C67.8504 9.50429 69.9228 7.21325 72.6791 7.21325Z" fill="#950EDB"/>
</g>
</g>
<defs>
<clipPath id="clip0_2_65">
<rect width="80.9873" height="26.9958" fill="white"/>
</clipPath>
</defs>
</svg>
